<?xml version="1.0" encoding="UTF-8" standalone="no"?>
<!DOCTYPE svg PUBLIC "-//W3C//DTD SVG 1.1//EN" "http://www.w3.org/Graphics/SVG/1.1/DTD/svg11.dtd">
<svg version="1.1" xmlns="http://www.w3.org/2000/svg" xmlns:xlink="http://www.w3.org/1999/xlink" preserveAspectRatio="xMidYMid meet" viewBox="0 0 640 640" width="640" height="640"><defs><path d="M18.31 237.99L0 263.48L311.91 576.22C311.94 576.24 311.95 576.26 311.96 576.26C347.41 611.5 392.41 630.9 438.76 630.91C452.09 630.91 518.72 630.91 638.66 630.91L638.66 597.48C518.72 597.48 452.09 597.48 438.76 597.48C399.12 597.48 360.5 580.86 330.18 550.7C288.59 509 184.64 404.77 18.31 237.99Z" id="b1JM8KYGBf"></path><path d="M589.55 574.64C659.73 574.64 649.2 490.43 603.58 477.8C572.8 469.28 533.28 449.69 533.28 449.69C517.69 443.44 504.91 429.76 498.01 411.89C498.01 411.89 496.3 407.54 493.44 400.23C487.71 402.31 441.87 418.93 436.14 421.01C429.88 423.29 423.27 419.05 421.38 411.54C419.49 404.02 423.02 396.09 429.28 393.83C434.68 391.87 477.87 376.19 483.27 374.23C478.62 362.36 473.24 348.58 467.57 334.02C462.21 335.97 419.38 351.52 414.03 353.46C407.76 355.74 401.15 351.46 399.26 343.97C397.36 336.46 400.92 328.52 407.16 326.25C412.19 324.43 452.4 309.84 457.43 308.01C452.08 294.24 446.76 280.52 441.83 267.77C436.84 269.58 396.9 284.09 391.91 285.9C385.64 288.16 379.03 283.92 377.13 276.41C375.25 268.9 378.78 260.96 385.04 258.7C389.72 257 427.13 243.42 431.81 241.72C425.11 224.21 420.24 211.24 418.95 207.21C413.32 189.65 400.96 140.95 372.76 168.02C326.38 212.57 241.78 199.51 219.94 150.82C203.57 114.33 212.93 75.04 219.94 44.17C225.56 19.49 196.54 -18.99 175.5 14.69C160.6 38.5 35.13 216.77 35.13 216.77C66.69 248.63 319.12 503.53 350.68 535.39C375.78 560.74 407.53 574.64 440.33 574.64C470.18 574.64 519.36 574.64 589.55 574.64Z" id="a3WBdEvdjm"></path><path d="M86.41 171.52L87.43 171.63L88.49 171.78L89.57 171.97L90.69 172.21L91.84 172.49L93.02 172.82L94.23 173.19L95.46 173.6L96.73 174.06L98.02 174.56L99.34 175.11L100.68 175.69L102.05 176.32L103.45 176.99L104.87 177.71L106.32 178.46L107.78 179.26L109.28 180.1L110.79 180.98L112.33 181.9L113.89 182.86L114.52 183.28L115.15 183.72L115.78 184.15L116.41 184.59L117.04 185.04L117.67 185.49L118.3 185.95L118.93 186.41L119.56 186.88L120.19 187.36L120.83 187.84L121.46 188.32L122.09 188.82L122.73 189.32L123.36 189.82L124 190.34L124.63 190.86L125.27 191.39L125.91 191.92L126.55 192.47L127.19 193.02L127.83 193.58L128.47 194.14L129.12 194.72L129.76 195.3L130.41 195.89L131.05 196.49L131.7 197.1L132.35 197.72L133.01 198.35L133.66 198.99L134.31 199.64L134.97 200.29L135.63 200.96L136.29 201.64L136.95 202.32L137.61 203.02L138.28 203.73L138.95 204.45L139.62 205.18L140.69 206.36L141.73 207.54L142.76 208.73L143.76 209.91L144.74 211.08L145.69 212.25L146.62 213.42L147.52 214.58L148.39 215.73L149.24 216.88L150.05 218.01L150.84 219.14L151.6 220.25L152.32 221.35L153.02 222.44L153.68 223.51L154.31 224.57L154.9 225.61L155.46 226.63L155.98 227.63L156.47 228.61L156.91 229.58L157.32 230.52L157.69 231.43L158.03 232.32L158.32 233.19L158.56 234.03L158.77 234.85L158.94 235.63L159.05 236.39L159.13 237.12L159.16 237.81L159.14 238.47L159.08 239.1L158.97 239.7L158.81 240.25L158.6 240.78L158.34 241.26L158.03 241.71L157.67 242.11L157.26 242.47L156.8 242.79L156.31 243.05L155.77 243.27L155.2 243.45L154.58 243.57L153.93 243.65L153.25 243.69L152.53 243.68L151.78 243.63L151 243.53L150.18 243.39L149.34 243.21L148.48 242.98L147.58 242.72L146.67 242.41L145.73 242.06L144.76 241.67L143.78 241.24L142.78 240.77L141.76 240.26L140.73 239.71L139.68 239.13L138.61 238.51L137.54 237.85L136.45 237.15L135.36 236.42L134.25 235.65L133.14 234.84L132.03 234L130.91 233.13L129.78 232.22L128.66 231.28L127.53 230.31L126.41 229.3L125.29 228.26L124.17 227.19L123.06 226.09L121.96 224.96L120.86 223.8L120.43 223.33L119.99 222.84L119.53 222.33L119.07 221.79L118.59 221.24L118.11 220.67L117.62 220.08L117.13 219.47L116.63 218.86L116.13 218.23L115.62 217.59L115.12 216.94L114.62 216.28L114.12 215.62L113.63 214.95L113.14 214.28L112.65 213.61L112.18 212.93L111.71 212.26L111.26 211.59L110.81 210.92L110.38 210.26L109.97 209.6L109.57 208.95L109.18 208.31L108.82 207.68L108.47 207.07L108.15 206.47L107.85 205.88L107.57 205.31L107.32 204.76L107.09 204.22L106.89 203.71L106.72 203.22L106.58 202.75L106.47 202.31L106.39 201.9L106.35 201.51L106.34 201.16L106.37 200.83L106.43 200.53L106.49 200.23L106.55 199.95L106.63 199.69L106.7 199.43L106.78 199.18L106.87 198.94L106.95 198.72L107.04 198.49L107.12 198.28L107.21 198.07L107.29 197.87L107.37 197.68L107.44 197.49L107.51 197.3L107.57 197.12L107.63 196.94L107.67 196.76L107.71 196.59L107.73 196.41L107.75 196.24L107.75 196.07L107.74 195.89L107.71 195.72L107.67 195.54L107.62 195.36L107.54 195.17L107.45 194.98L107.33 194.79L107.2 194.59L107.04 194.39L106.86 194.17L106.66 193.96L106.44 193.73L106.18 193.49L105.91 193.25L105.6 193L105.27 192.73L104.9 192.46L104.51 192.17L104.09 191.88L103.66 191.61L103.23 191.35L102.78 191.1L102.32 190.87L101.86 190.66L101.39 190.46L100.92 190.27L100.44 190.11L99.96 189.96L99.47 189.83L98.99 189.72L98.51 189.62L98.03 189.55L97.55 189.5L97.07 189.47L96.6 189.46L96.14 189.47L95.68 189.5L95.23 189.56L94.79 189.64L94.36 189.75L93.95 189.88L93.54 190.03L93.15 190.21L92.77 190.42L92.41 190.65L92.07 190.91L91.75 191.2L91.44 191.52L91.15 191.87L90.89 192.24L90.65 192.65L90.43 193.09L90.24 193.56L90.07 194.06L89.93 194.59L89.82 195.16L89.73 195.76L89.68 196.39L89.67 197.07L89.72 197.79L89.83 198.57L90 199.39L90.22 200.27L90.5 201.19L90.85 202.16L91.25 203.17L91.71 204.23L92.22 205.33L92.8 206.48L93.43 207.67L94.12 208.91L94.87 210.18L95.68 211.5L96.55 212.85L97.48 214.25L98.46 215.68L99.5 217.15L100.6 218.66L101.76 220.21L102.98 221.79L104.25 223.4L105.59 225.05L106.98 226.73L108.43 228.45L109.94 230.19L111.5 231.97L113.13 233.78L114.81 235.61L116.55 237.48L118.35 239.37L120.21 241.29L122.12 243.24L124.1 245.21L126.13 247.21L128.22 249.23L130.37 251.28L132.57 253.35L134.84 255.43L135.02 255.6L135.21 255.78L135.4 255.95L135.59 256.13L135.79 256.31L135.99 256.49L136.19 256.67L136.39 256.86L136.59 257.05L136.8 257.24L137.01 257.43L137.22 257.62L137.44 257.82L137.65 258.02L137.87 258.22L138.09 258.42L138.31 258.63L138.54 258.83L138.77 259.04L138.99 259.25L139.23 259.47L139.46 259.68L139.69 259.9L139.93 260.11L140.17 260.33L140.41 260.56L140.65 260.78L140.9 261.01L141.15 261.23L141.4 261.46L141.65 261.69L141.9 261.93L142.15 262.16L142.41 262.4L142.67 262.64L142.93 262.88L143.19 263.12L143.45 263.36L143.72 263.61L143.98 263.85L144.04 263.73L144.1 263.61L144.16 263.5L144.22 263.38L144.28 263.26L144.34 263.15L144.4 263.03L144.46 262.92L144.53 262.8L144.59 262.69L144.66 262.58L144.72 262.46L144.79 262.35L144.86 262.24L144.92 262.13L144.99 262.03L145.06 261.92L145.14 261.81L145.21 261.7L145.28 261.6L145.36 261.49L145.43 261.39L145.51 261.29L145.59 261.19L145.67 261.09L145.75 260.99L145.83 260.89L145.91 260.79L145.99 260.69L146.08 260.6L146.16 260.5L146.25 260.41L146.34 260.32L146.43 260.22L146.52 260.13L146.62 260.05L146.71 259.96L146.8 259.87L146.9 259.78L147 259.7L148.26 258.59L149.63 257.62L151.11 256.8L152.71 256.12L154.4 255.58L156.2 255.18L158.09 254.91L160.07 254.78L162.15 254.77L164.3 254.9L166.54 255.14L168.85 255.51L171.24 256L173.69 256.61L176.2 257.33L178.78 258.16L181.41 259.1L184.1 260.15L186.83 261.3L189.61 262.56L192.43 263.91L195.28 265.36L198.17 266.9L201.08 268.54L204.02 270.26L206.98 272.07L209.95 273.96L212.94 275.94L215.93 277.99L218.93 280.12L221.93 282.33L224.93 284.6L227.92 286.94L230.89 289.35L233.85 291.82L236.8 294.36L239.71 296.95L242.6 299.59L245.46 302.29L248.28 305.04L251.64 308.4L254.91 311.75L258.1 315.09L261.21 318.42L264.23 321.73L267.17 325.04L270.04 328.33L272.83 331.62L275.54 334.89L278.17 338.16L280.73 341.42L283.22 344.66L285.64 347.9L287.98 351.13L290.26 354.34L292.47 357.55L294.61 360.75L296.69 363.94L298.7 367.12L300.66 370.3L302.55 373.46L304.37 376.61L306.15 379.76L307.86 382.9L309.51 386.03L311.12 389.15L312.66 392.26L314.16 395.37L315.6 398.47L316.99 401.56L318.34 404.64L319.63 407.71L320.88 410.78L322.09 413.84L323.25 416.9L324.37 419.94L325.44 422.98L326.48 426.01L327.48 429.04L328.44 432.06L328.45 432.1L328.47 432.15L328.48 432.2L328.5 432.25L328.52 432.3L328.53 432.35L328.55 432.4L328.57 432.45L328.59 432.51L328.6 432.56L328.62 432.62L328.64 432.67L328.66 432.73L328.68 432.79L328.71 432.85L328.73 432.91L328.75 432.97L328.77 433.04L328.79 433.1L328.82 433.16L328.84 433.23L328.87 433.29L328.89 433.36L328.91 433.43L328.94 433.5L328.97 433.57L328.99 433.64L329.02 433.71L329.04 433.78L329.07 433.85L329.1 433.93L329.13 434L329.16 434.08L329.18 434.15L329.21 434.23L329.24 434.3L329.27 434.38L329.3 434.46L329.33 434.54L329.36 434.62L330.79 435.93L332.23 437.25L333.68 438.59L335.13 439.92L336.59 441.27L338.06 442.62L339.52 443.97L340.99 445.33L342.46 446.68L343.92 448.03L345.38 449.38L346.84 450.73L348.28 452.06L349.72 453.39L351.15 454.71L352.56 456.02L353.96 457.31L355.34 458.59L356.7 459.85L358.04 461.1L359.36 462.32L360.66 463.52L361.94 464.7L363.18 465.86L364.4 466.98L365.59 468.09L366.74 469.16L367.86 470.2L368.95 471.2L370 472.18L371.01 473.11L371.98 474.01L372.91 474.87L373.79 475.69L374.63 476.47L375.42 477.2L376.17 477.88L376.86 478.52L377.5 479.11L378.08 479.65L379.2 480.69L380.44 481.87L381.81 483.18L383.28 484.62L384.85 486.17L386.51 487.83L388.25 489.6L390.06 491.46L391.93 493.41L393.85 495.44L395.81 497.55L397.8 499.73L399.81 501.97L401.83 504.26L403.86 506.6L405.87 508.98L407.87 511.4L409.85 513.84L411.78 516.3L413.67 518.77L415.5 521.25L417.27 523.73L418.96 526.2L420.57 528.65L422.08 531.08L423.48 533.48L424.78 535.85L425.95 538.17L426.98 540.44L427.87 542.65L428.61 544.8L429.19 546.88L429.59 548.88L429.81 550.79L429.84 552.61L429.67 554.33L429.29 555.95L428.68 557.45L427.85 558.83L426.77 560.09L425.49 561.15L424.04 561.94L422.43 562.49L420.68 562.79L418.78 562.85L416.74 562.68L414.58 562.28L412.29 561.67L409.9 560.85L407.4 559.82L404.81 558.6L402.13 557.18L399.37 555.59L396.53 553.82L393.64 551.87L390.68 549.77L387.68 547.51L384.63 545.11L381.56 542.56L378.46 539.88L375.34 537.07L372.21 534.14L369.08 531.09L365.96 527.94L362.85 524.69L359.76 521.35L356.7 517.92L353.68 514.42L350.71 510.84L347.79 507.2L344.93 503.5L342.14 499.74L339.43 495.95L336.8 492.11L334.26 488.25L331.83 484.36L329.5 480.46L327.29 476.55L325.2 472.64L323.25 468.73L322.72 467.63L322.21 466.54L321.7 465.44L321.19 464.34L320.69 463.24L320.2 462.13L319.72 461.03L319.24 459.92L318.76 458.81L318.29 457.7L317.83 456.59L317.37 455.47L316.92 454.35L316.47 453.24L316.02 452.11L315.58 450.99L315.14 449.87L314.7 448.74L314.27 447.61L313.85 446.49L313.42 445.35L313 444.22L312.58 443.09L312.16 441.95L311.74 440.81L311.33 439.68L310.91 438.53L310.5 437.39L310.09 436.25L309.68 435.1L309.27 433.96L308.87 432.81L308.46 431.66L308.05 430.51L307.64 429.35L307.23 428.2L306.82 427.05L306.41 425.89L306 424.73L305.59 423.57L304.84 422.88L304.09 422.18L303.33 421.48L302.57 420.78L301.82 420.08L301.05 419.38L300.29 418.67L299.53 417.96L298.76 417.25L297.99 416.54L297.22 415.83L296.44 415.11L295.67 414.39L294.89 413.68L294.11 412.95L293.33 412.23L292.55 411.51L291.77 410.78L290.98 410.06L290.19 409.33L289.4 408.6L288.61 407.87L287.82 407.13L287.02 406.4L286.23 405.66L285.43 404.92L284.63 404.18L283.83 403.44L283.03 402.7L282.22 401.96L281.42 401.21L280.61 400.47L279.8 399.72L278.99 398.97L278.18 398.22L277.37 397.47L276.56 396.72L275.74 395.97L274.93 395.22L274.11 394.46L274.08 394.5L274.06 394.55L274.03 394.59L274 394.63L273.98 394.68L273.95 394.72L273.9 394.81L273.87 394.85L273.84 394.89L273.82 394.94L273.79 394.98L273.76 395.02L273.74 395.07L273.71 395.11L273.68 395.15L273.65 395.2L273.63 395.24L273.6 395.28L273.57 395.32L273.54 395.37L273.51 395.41L273.49 395.45L273.46 395.49L273.43 395.53L273.4 395.57L273.37 395.62L273.34 395.66L273.31 395.7L273.28 395.74L273.24 395.78L273.21 395.82L273.18 395.85L273.15 395.89L273.11 395.93L273.08 395.97L273.05 396.01L273.01 396.04L272.98 396.08L272.94 396.12L272.02 396.93L271 397.63L269.89 398.22L268.7 398.71L267.42 399.08L266.06 399.35L264.62 399.52L263.1 399.58L261.51 399.54L259.85 399.39L258.11 399.15L256.32 398.81L254.45 398.38L252.53 397.84L250.55 397.22L248.51 396.5L246.43 395.69L244.29 394.79L242.1 393.8L239.87 392.72L237.59 391.55L235.28 390.31L232.93 388.97L230.55 387.56L228.13 386.06L225.69 384.49L223.21 382.83L220.72 381.1L218.21 379.3L215.67 377.42L213.12 375.46L210.56 373.44L207.99 371.34L205.41 369.18L202.83 366.95L200.24 364.65L197.66 362.28L195.08 359.86L192.5 357.37L189.93 354.82L187.93 352.78L185.96 350.71L184.01 348.61L182.09 346.49L180.19 344.35L178.33 342.19L176.5 340.02L174.7 337.83L172.93 335.62L171.2 333.4L169.5 331.18L167.85 328.95L166.23 326.71L164.65 324.48L163.12 322.24L161.63 320L160.18 317.77L158.78 315.54L157.43 313.33L156.12 311.12L154.87 308.93L153.66 306.75L152.51 304.59L151.42 302.44L150.38 300.32L149.39 298.22L148.46 296.15L147.6 294.11L146.79 292.09L146.04 290.11L145.36 288.16L144.75 286.25L144.2 284.38L143.71 282.55L143.3 280.76L142.95 279.01L142.68 277.32L142.48 275.67L142.35 274.07L142.3 272.53L141.36 271.65L140.42 270.78L139.5 269.93L138.59 269.08L137.69 268.25L136.81 267.42L135.93 266.61L135.07 265.81L134.22 265.02L133.39 264.24L132.56 263.48L131.75 262.72L130.96 261.98L130.17 261.25L129.4 260.53L128.65 259.83L127.91 259.14L127.18 258.46L126.46 257.79L125.76 257.14L125.08 256.5L124.41 255.87L123.75 255.26L123.11 254.66L122.49 254.08L121.88 253.51L121.29 252.95L120.71 252.41L120.14 251.88L119.6 251.37L119.07 250.87L118.55 250.39L118.06 249.92L117.58 249.46L117.11 249.03L116.66 248.6L116.23 248.2L115.82 247.81L115.43 247.43L115.05 247.07L112.94 245.05L110.88 243.02L108.85 241L106.87 238.97L104.94 236.94L103.05 234.91L101.2 232.89L99.41 230.88L97.66 228.87L95.96 226.87L94.32 224.87L92.72 222.9L91.18 220.93L89.69 218.98L88.26 217.04L86.89 215.12L85.57 213.22L84.31 211.35L83.11 209.49L81.97 207.66L80.9 205.85L79.88 204.07L78.94 202.32L78.05 200.6L77.24 198.91L76.49 197.25L75.81 195.63L75.2 194.04L74.66 192.49L74.2 190.98L73.8 189.51L73.49 188.08L73.24 186.7L73.08 185.36L72.99 184.06L72.98 182.82L73.05 181.63L73.2 180.48L73.44 179.39L73.76 178.36L74.07 177.57L74.42 176.83L74.82 176.13L75.26 175.49L75.74 174.89L76.25 174.35L76.81 173.85L77.41 173.4L78.05 172.99L78.72 172.64L79.43 172.33L80.18 172.07L80.96 171.85L81.79 171.68L82.64 171.56L83.53 171.48L84.46 171.45L85.42 171.46L86.41 171.52ZM339.8 457.86L340.99 460.31L342.24 462.82L343.53 465.38L344.86 467.99L346.23 470.64L347.64 473.33L349.09 476.04L350.57 478.78L352.08 481.54L353.63 484.31L355.21 487.08L356.81 489.85L358.44 492.61L360.09 495.36L361.77 498.09L363.46 500.79L365.17 503.46L366.9 506.09L368.65 508.68L370.4 511.21L372.17 513.69L373.95 516.1L375.73 518.45L377.52 520.71L379.31 522.9L381.1 525L382.89 527L384.68 528.91L386.47 530.7L388.25 532.39L390.02 533.95L391.79 535.39L393.54 536.7L395.28 537.87L397 538.89L398.7 539.77L400.39 540.49L402.06 541.05L403.17 541.32L404.19 541.48L405.1 541.52L405.92 541.44L406.63 541.26L407.25 540.97L407.76 540.57L408.18 540.07L408.5 539.46L408.72 538.76L408.84 537.96L408.86 537.06L408.78 536.07L408.6 534.99L408.33 533.82L407.95 532.57L407.47 531.23L406.9 529.81L406.22 528.31L405.45 526.74L404.58 525.09L403.61 523.37L402.54 521.58L401.37 519.72L400.1 517.8L398.73 515.81L397.26 513.76L395.69 511.66L394.03 509.49L392.26 507.28L390.4 505.01L388.44 502.69L386.38 500.33L384.22 497.92L381.96 495.47L379.6 492.98L377.14 490.45L374.58 487.88L371.93 485.28L369.17 482.65L368.68 482.19L368.16 481.7L367.63 481.2L367.09 480.69L366.52 480.16L365.94 479.61L365.34 479.05L364.73 478.48L364.1 477.89L363.45 477.29L362.79 476.67L362.12 476.03L361.43 475.39L360.72 474.73L360 474.05L359.26 473.37L358.51 472.66L357.74 471.95L356.96 471.22L356.17 470.48L355.36 469.73L354.53 468.96L353.7 468.18L352.85 467.39L351.99 466.59L351.11 465.77L350.22 464.94L349.32 464.11L348.4 463.25L347.47 462.39L346.53 461.52L345.58 460.63L344.62 459.74L343.64 458.83L342.65 457.91L341.65 456.98L340.64 456.05L339.62 455.1L338.59 454.14L337.54 453.17L338.64 455.48L339.8 457.86ZM168.12 268.32L167.5 268.37L166.9 268.43L166.31 268.51L165.75 268.6L165.2 268.72L164.67 268.85L164.16 269L163.67 269.16L163.19 269.35L162.74 269.55L162.3 269.76L161.87 269.99L161.47 270.24L161.08 270.5L160.71 270.78L160.35 271.07L160.01 271.37L159.68 271.69L159.38 272.02L159.08 272.37L158.81 272.72L158.54 273.09L158.3 273.47L158.07 273.87L157.85 274.27L157.65 274.69L157.46 275.12L157.28 275.56L157.13 276.01L159.03 277.77L160.97 279.56L162.95 281.4L164.97 283.28L167.03 285.18L169.13 287.13L171.25 289.1L173.42 291.11L175.61 293.14L177.83 295.2L180.08 297.28L182.35 299.39L184.64 301.52L186.96 303.68L189.3 305.85L191.66 308.04L194.04 310.24L196.43 312.46L198.83 314.69L201.25 316.94L203.67 319.19L206.11 321.45L208.55 323.72L211 325.99L213.45 328.26L215.9 330.54L218.35 332.82L220.81 335.09L223.25 337.36L225.7 339.63L228.13 341.89L230.56 344.14L232.98 346.39L235.39 348.62L237.78 350.84L240.16 353.04L242.52 355.23L244.86 357.41L247.19 359.56L249.49 361.69L249.47 361.5L249.44 361.31L249.42 361.12L249.39 360.92L249.36 360.73L249.33 360.53L249.3 360.33L249.26 360.13L249.23 359.93L249.19 359.72L249.15 359.52L249.1 359.31L249.06 359.1L249.01 358.89L248.96 358.68L248.91 358.47L248.86 358.25L248.81 358.04L248.75 357.82L248.69 357.6L248.63 357.38L248.57 357.16L248.5 356.94L248.44 356.71L248.37 356.49L248.3 356.26L248.22 356.03L248.15 355.8L248.07 355.57L247.99 355.33L247.91 355.1L247.83 354.86L247.74 354.62L247.65 354.38L247.56 354.14L247.47 353.9L247.38 353.66L247.28 353.41L247.18 353.16L247.08 352.92L246.74 352.1L246.37 351.28L245.98 350.46L245.57 349.64L245.13 348.81L244.66 347.98L244.18 347.14L243.67 346.31L243.15 345.47L242.6 344.63L242.03 343.79L241.45 342.95L240.84 342.11L240.22 341.27L239.59 340.44L238.93 339.6L238.26 338.76L237.58 337.93L236.88 337.1L236.17 336.27L235.44 335.44L234.7 334.62L233.96 333.8L233.2 332.99L232.43 332.18L231.65 331.38L230.86 330.58L230.06 329.79L229.25 329.01L228.44 328.23L227.62 327.46L226.8 326.7L225.97 325.95L225.14 325.2L224.3 324.47L223.46 323.74L222.62 323.02L221.77 322.32L220.93 321.62L220.08 320.94L218.93 320.02L217.81 319.15L216.74 318.32L215.7 317.54L214.71 316.81L213.75 316.11L212.84 315.46L211.95 314.85L211.11 314.27L210.3 313.73L209.52 313.22L208.78 312.74L208.07 312.29L207.39 311.88L206.74 311.49L206.12 311.12L205.53 310.78L204.97 310.46L204.43 310.16L203.93 309.88L203.44 309.62L202.99 309.37L202.55 309.14L202.14 308.92L201.76 308.71L201.39 308.5L201.04 308.31L200.72 308.12L200.41 307.93L200.12 307.75L199.85 307.57L199.59 307.38L199.36 307.19L199.13 307L198.92 306.81L198.72 306.6L198.53 306.39L198.36 306.16L198.2 305.92L198.04 305.67L197.81 305.22L197.63 304.79L197.49 304.38L197.42 303.98L197.39 303.61L197.41 303.25L197.48 302.92L197.61 302.61L197.78 302.33L198.01 302.07L198.28 301.84L198.61 301.65L198.98 301.49L199.4 301.36L199.87 301.27L200.39 301.21L200.96 301.2L201.58 301.22L202.24 301.29L202.95 301.4L203.71 301.55L204.52 301.76L205.38 302.01L206.28 302.31L207.23 302.67L208.22 303.07L209.26 303.54L210.35 304.06L211.48 304.64L212.66 305.28L213.88 305.98L215.15 306.74L216.46 307.57L217.82 308.47L219.22 309.43L220.67 310.47L222.16 311.57L223.7 312.75L225.27 314.01L226.9 315.34L228.9 317.03L230.87 318.76L232.83 320.51L234.75 322.28L236.65 324.09L238.52 325.91L240.36 327.75L242.17 329.61L243.94 331.49L245.68 333.38L247.39 335.28L249.06 337.19L250.69 339.11L252.29 341.03L253.84 342.95L255.35 344.88L256.82 346.81L258.25 348.73L259.62 350.65L260.96 352.56L262.24 354.46L263.48 356.35L264.66 358.22L265.79 360.08L266.87 361.93L267.9 363.75L268.87 365.55L269.78 367.33L270.63 369.08L271.43 370.8L272.16 372.49L272.83 374.15L273.44 375.78L273.98 377.37L274.46 378.92L274.87 380.43L275.21 381.9L275.48 383.33L275.68 384.7L275.81 386.03L276.62 386.78L277.42 387.52L278.21 388.25L278.99 388.97L279.76 389.68L280.53 390.38L281.28 391.07L282.03 391.76L282.76 392.43L283.48 393.1L284.2 393.76L284.9 394.4L285.59 395.04L286.28 395.67L286.95 396.28L287.61 396.89L288.26 397.49L288.9 398.07L289.53 398.65L290.14 399.21L290.75 399.77L291.34 400.31L291.92 400.84L292.49 401.36L293.05 401.87L293.6 402.37L294.13 402.85L294.65 403.33L295.16 403.79L295.66 404.24L296.14 404.68L296.61 405.11L297.07 405.52L297.51 405.92L297.94 406.31L298.36 406.69L298.77 407.05L299.16 407.41L299.53 407.74L299.89 408.07L299.42 406.84L298.94 405.62L298.46 404.39L297.97 403.16L297.47 401.93L296.97 400.7L296.47 399.47L295.95 398.23L295.43 397L294.91 395.76L294.37 394.52L293.83 393.29L293.28 392.05L292.72 390.81L292.15 389.57L291.58 388.33L291 387.08L290.4 385.84L289.8 384.6L289.19 383.35L288.57 382.1L287.94 380.86L287.3 379.61L286.65 378.36L285.99 377.11L285.31 375.86L284.63 374.61L283.94 373.36L283.23 372.11L282.51 370.85L281.78 369.6L281.03 368.35L280.28 367.09L279.51 365.83L278.73 364.58L277.93 363.32L277.12 362.06L276.3 360.81L275.46 359.55L274.61 358.29L272.61 355.41L270.54 352.5L268.41 349.59L266.2 346.65L263.94 343.72L261.62 340.77L259.24 337.83L256.82 334.9L254.35 331.97L251.84 329.06L249.29 326.16L246.71 323.29L244.09 320.45L241.45 317.63L238.79 314.85L236.11 312.11L233.41 309.41L230.71 306.76L227.99 304.17L225.28 301.63L222.56 299.14L219.85 296.73L217.15 294.38L214.46 292.11L211.79 289.91L209.13 287.8L206.5 285.77L203.9 283.84L201.33 281.99L198.79 280.25L196.3 278.61L193.84 277.08L191.44 275.66L189.08 274.35L186.78 273.17L184.54 272.11L182.36 271.18L180.25 270.38L178.21 269.72L176.24 269.2L175.4 269.01L174.58 268.85L173.78 268.71L173.01 268.59L172.25 268.49L171.51 268.41L170.79 268.35L170.1 268.32L169.42 268.3L168.76 268.3L168.12 268.32ZM156.66 286.68L156.74 287.16L156.82 287.64L156.91 288.12L157.01 288.61L157.11 289.1L157.22 289.59L157.34 290.08L157.46 290.57L157.59 291.07L157.73 291.56L157.87 292.06L158.01 292.55L158.17 293.05L158.32 293.55L158.49 294.04L158.66 294.54L158.83 295.04L159.01 295.53L159.19 296.03L159.38 296.52L159.58 297.02L159.78 297.51L159.98 298L160.19 298.49L160.4 298.98L160.62 299.47L160.85 299.95L161.07 300.44L161.3 300.92L161.54 301.4L161.78 301.87L162.02 302.35L162.27 302.82L162.52 303.28L162.78 303.75L163.04 304.21L163.3 304.67L163.57 305.12L164.36 306.43L165.23 307.8L166.18 309.25L167.2 310.76L168.29 312.32L169.44 313.94L170.67 315.62L171.95 317.33L173.29 319.09L174.7 320.88L176.15 322.71L177.66 324.56L179.21 326.44L180.81 328.33L182.45 330.24L184.14 332.15L185.86 334.07L187.62 335.99L189.41 337.91L191.23 339.81L193.08 341.71L194.95 343.58L196.84 345.43L198.75 347.25L200.68 349.04L202.63 350.8L204.58 352.51L206.54 354.18L208.51 355.8L210.48 357.36L212.45 358.86L214.42 360.3L216.38 361.67L218.33 362.97L220.28 364.19L222.21 365.33L224.12 366.38L226.02 367.34L227.89 368.21L229.74 368.98L230.4 369.23L231.05 369.46L231.68 369.69L232.3 369.9L232.91 370.1L233.51 370.29L234.1 370.46L234.68 370.62L235.25 370.77L235.8 370.91L236.35 371.04L236.88 371.15L237.4 371.25L237.91 371.34L238.41 371.42L238.9 371.48L239.38 371.54L239.84 371.58L240.3 371.61L240.74 371.63L241.17 371.63L241.6 371.63L242.01 371.62L242.41 371.59L242.8 371.55L243.17 371.5L243.54 371.44L243.9 371.37L244.24 371.29L244.58 371.2L244.9 371.09L245.21 370.98L245.51 370.86L245.8 370.72L246.08 370.58L246.35 370.42L246.61 370.25L246.86 370.08L247.1 369.89L247.32 369.7L244.87 367.43L242.43 365.17L239.98 362.91L237.53 360.65L235.09 358.39L232.65 356.14L230.21 353.88L227.78 351.63L225.35 349.39L222.93 347.15L220.51 344.92L218.1 342.69L215.7 340.47L213.31 338.26L210.92 336.05L208.55 333.86L206.19 331.68L203.83 329.5L201.5 327.34L199.17 325.19L196.86 323.05L194.56 320.93L192.28 318.82L190.01 316.72L187.76 314.64L185.53 312.58L183.32 310.53L181.12 308.5L178.95 306.48L176.79 304.49L174.66 302.52L172.55 300.56L170.46 298.63L168.39 296.71L166.35 294.82L164.33 292.96L162.34 291.11L160.37 289.29L158.43 287.49L156.52 285.72L156.59 286.2L156.66 286.68Z" id="d1YrgQKDv2"></path></defs><g><g><g><use xlink:href="#b1JM8KYGBf" opacity="1" fill="#4b4b4b" fill-opacity="0.97"></use><g><use xlink:href="#b1JM8KYGBf" opacity="1" fill-opacity="0" stroke="#000000" stroke-width="1" stroke-opacity="0"></use></g></g><g><use xlink:href="#a3WBdEvdjm" opacity="1" fill="#4b4b4b" fill-opacity="0.97"></use><g><use xlink:href="#a3WBdEvdjm" opacity="1" fill-opacity="0" stroke="#000000" stroke-width="1" stroke-opacity="0"></use></g></g><g><use xlink:href="#d1YrgQKDv2" opacity="1" fill="#3aabd2" fill-opacity="1"></use><g><use xlink:href="#d1YrgQKDv2" opacity="1" fill-opacity="0" stroke="#000000" stroke-width="1" stroke-opacity="0"></use></g></g></g></g></svg>